<svg width="24" height="25" viewBox="0 0 24 25" fill="none" xmlns="http://www.w3.org/2000/svg">
<path d="M11.7498 3.68161C12.1295 3.68161 12.4434 3.96362 12.4931 4.32969L12.5 4.43146L12.5012 11.6816H19.7543C20.1685 11.6816 20.5043 12.0174 20.5043 12.4316C20.5043 12.8113 20.2221 13.1251 19.8561 13.1748L19.7543 13.1816H12.5012L12.5032 20.4307C12.5033 20.8449 12.1676 21.1809 11.7534 21.1809C11.3737 21.1809 11.0598 20.8989 11.0101 20.5328L11.0032 20.431L11.0012 13.1816H3.7522C3.33798 13.1816 3.0022 12.8458 3.0022 12.4316C3.0022 12.0519 3.28435 11.7381 3.65043 11.6885L3.7522 11.6816H11.0012L11 4.43176C10.9999 4.01755 11.3356 3.68161 11.7498 3.68161Z" fill="url(#paint0_linear_5_3065)"/>
<defs>
<linearGradient id="paint0_linear_5_3065" x1="-1.75618" y1="32.3804" x2="22.0385" y2="29.6525" gradientUnits="userSpaceOnUse">
<stop stop-color="#FF00C7"/>
<stop offset="1" stop-color="#00B4D8"/>
</linearGradient>
</defs>
</svg>
