<svg width="25" height="25" viewBox="0 0 25 25" fill="none" xmlns="http://www.w3.org/2000/svg">
<path d="M15.3688 9.5H17C17.4142 9.5 17.75 9.1642 17.75 8.75C17.75 8.3358 17.4142 8 17 8H15.3688C13.6215 8 12.2 9.4215 12.2 11.1688V12.5H11.15C10.7358 12.5 10.4 12.8358 10.4 13.25C10.4 13.6642 10.7358 14 11.15 14H12.2V20.3C12.2 20.7142 12.5358 21.05 12.95 21.05C13.3642 21.05 13.7 20.7142 13.7 20.3V14H16.7C17.1142 14 17.45 13.6642 17.45 13.25C17.45 12.8358 17.1142 12.5 16.7 12.5H13.7V11.1688C13.7 10.2486 14.4486 9.5 15.3688 9.5Z" fill="#FEFFFE"/>
<path d="M16.7 21.5H7.70001C5.21871 21.5 3.20001 19.4813 3.20001 17V8C3.20001 5.5187 5.21871 3.5 7.70001 3.5H16.7C19.1813 3.5 21.2 5.5187 21.2 8V17C21.2 19.4813 19.1813 21.5 16.7 21.5ZM7.70001 5C6.04581 5 4.70001 6.3458 4.70001 8V17C4.70001 18.6542 6.04581 20 7.70001 20H16.7C18.3542 20 19.7 18.6542 19.7 17V8C19.7 6.3458 18.3542 5 16.7 5H7.70001Z" fill="#FEFFFE"/>
</svg>
