<svg width="24" height="24" viewBox="0 0 24 24" fill="none" xmlns="http://www.w3.org/2000/svg">
<path d="M12.8199 5.57961L11.9991 6.40211L11.1759 5.57886C9.07683 3.4798 5.67357 3.4798 3.5745 5.57886C1.47543 7.67793 1.47543 11.0812 3.5745 13.1803L11.4699 21.0756C11.7628 21.3685 12.2376 21.3685 12.5305 21.0756L20.432 13.1788C22.5264 11.0728 22.53 7.67906 20.4305 5.57961C18.3276 3.47672 14.9228 3.47672 12.8199 5.57961ZM19.3684 12.1211L12.0002 19.4846L4.63516 12.1196C3.12188 10.6063 3.12188 8.15281 4.63516 6.63952C6.14844 5.12624 8.60196 5.12624 10.1152 6.63952L11.4727 7.99697C11.7705 8.29483 12.2552 8.28903 12.5459 7.98412L13.8805 6.64027C15.3976 5.12317 17.8528 5.12316 19.3699 6.64027C20.8835 8.15391 20.8809 10.6001 19.3684 12.1211Z" fill="url(#paint0_linear_5_1116)"/>
<defs>
<linearGradient id="paint0_linear_5_1116" x1="-3.43832" y1="32.3627" x2="23.6388" y2="28.7725" gradientUnits="userSpaceOnUse">
<stop stop-color="#FF00C7"/>
<stop offset="1" stop-color="#00B4D8"/>
</linearGradient>
</defs>
</svg>
