<svg width="24" height="25" viewBox="0 0 24 25" fill="none" xmlns="http://www.w3.org/2000/svg">
<path d="M16.5 21.5H7.5C5.0187 21.5 3 19.4813 3 17V8C3 5.5187 5.0187 3.5 7.5 3.5H16.5C18.9813 3.5 21 5.5187 21 8V17C21 19.4813 18.9813 21.5 16.5 21.5ZM7.5 5C5.8458 5 4.5 6.3458 4.5 8V17C4.5 18.6542 5.8458 20 7.5 20H16.5C18.1542 20 19.5 18.6542 19.5 17V8C19.5 6.3458 18.1542 5 16.5 5H7.5Z" fill="#FEFFFE"/>
<path d="M12 16.85C9.60139 16.85 7.64999 14.8986 7.64999 12.5C7.64999 10.1014 9.60139 8.15002 12 8.15002C14.3986 8.15002 16.35 10.1014 16.35 12.5C16.35 14.8986 14.3986 16.85 12 16.85ZM12 9.58162C10.3908 9.58162 9.08159 10.8908 9.08159 12.5C9.08159 14.1092 10.3908 15.4184 12 15.4184C13.6092 15.4184 14.9184 14.1092 14.9184 12.5C14.9184 10.8908 13.6092 9.58162 12 9.58162Z" fill="#FEFFFE"/>
<path d="M16.95 8.6C17.5299 8.6 18 8.1299 18 7.55C18 6.9701 17.5299 6.5 16.95 6.5C16.3701 6.5 15.9 6.9701 15.9 7.55C15.9 8.1299 16.3701 8.6 16.95 8.6Z" fill="#212121"/>
</svg>
