<svg width="25" height="25" viewBox="0 0 25 25" fill="none" xmlns="http://www.w3.org/2000/svg">
<path d="M16.9 21.5H7.90001C5.41871 21.5 3.40001 19.4813 3.40001 17V8C3.40001 5.5187 5.41871 3.5 7.90001 3.5H16.9C19.3813 3.5 21.4 5.5187 21.4 8V17C21.4 19.4813 19.3813 21.5 16.9 21.5ZM7.90001 5C6.24581 5 4.90001 6.3458 4.90001 8V17C4.90001 18.6542 6.24581 20 7.90001 20H16.9C18.5542 20 19.9 18.6542 19.9 17V8C19.9 6.3458 18.5542 5 16.9 5H7.90001Z" fill="#FEFFFE"/>
<path d="M9.40001 10.9322V16.25C9.40001 16.6642 9.06421 17 8.65001 17C8.23581 17 7.90001 16.6642 7.90001 16.25V10.9322C7.90001 10.518 8.23581 10.1822 8.65001 10.1822C9.06421 10.1822 9.40001 10.518 9.40001 10.9322ZM8.65001 7.69995C8.23581 7.69995 7.90001 8.03575 7.90001 8.44995V8.59995C7.90001 9.01415 8.23581 9.34995 8.65001 9.34995C9.06421 9.34995 9.40001 9.01415 9.40001 8.59995V8.44995C9.40001 8.03575 9.06421 7.69995 8.65001 7.69995ZM14.8779 10.2827C14.1281 10.1354 13.2027 10.3312 12.3965 10.9658C12.3776 10.5684 12.0521 10.2513 11.6501 10.2513C11.2359 10.2513 10.9001 10.5871 10.9001 11.0013V16.25C10.9001 16.6642 11.2359 17 11.6501 17C12.0643 17 12.4001 16.6642 12.4001 16.25V13.4521C12.4088 13.4348 12.4197 13.4194 12.4272 13.4012C12.9418 12.1425 13.904 11.62 14.5887 11.7546C15.1043 11.8559 15.4001 12.3231 15.4001 13.0363V16.25C15.4001 16.6642 15.7359 17 16.1501 17C16.5643 17 16.9001 16.6642 16.9001 16.25V13.0363C16.9 11.6049 16.1063 10.5241 14.8779 10.2827Z" fill="#FEFFFE"/>
</svg>
