<svg width="25" height="25" viewBox="0 0 25 25" fill="none" xmlns="http://www.w3.org/2000/svg">
<path d="M12.0587 14.2609L6.4651 20.7432C6.3169 20.9131 6.1089 21.0001 5.8997 21.0001C5.7247 21.0001 5.549 20.9392 5.4069 20.8152C5.0948 20.5428 5.0626 20.0691 5.335 19.757L11.1066 13.0708L12.0587 14.2609ZM14.0935 11.9293L19.8651 5.24305C20.1375 4.93095 20.1053 4.45725 19.7932 4.18485C19.4812 3.91245 19.0072 3.94465 18.735 4.25675L13.1414 10.7391L14.0935 11.9293Z" fill="#FEFFFE"/>
<path d="M20.65 21H16.75C16.5221 21 16.3067 20.8964 16.1644 20.7185L3.96439 5.2185C3.78429 4.9934 3.74919 4.6849 3.87409 4.4251C3.99899 4.1653 4.26169 4 4.54999 4H8.44999C8.67789 4 8.89329 4.1036 9.03559 4.2815L21.2356 19.7815C21.4157 20.0066 21.4508 20.3151 21.3259 20.5749C21.201 20.8347 20.9383 21 20.65 21ZM17.1105 19.5H19.0895L8.08949 5.5H6.11049L17.1105 19.5Z" fill="#FEFFFE"/>
</svg>
