<svg width="25" height="25" viewBox="0 0 25 25" fill="none" xmlns="http://www.w3.org/2000/svg">
<path d="M13.1666 20.5C12.5912 20.5 12.3571 20.4962 11.8906 20.4886L11.4849 20.4821C7.21491 20.4066 5.87251 20.3401 4.95411 20.1586C4.22351 20.0168 3.58671 19.6957 3.11221 19.2301C2.73571 18.8685 2.44901 18.3507 2.23521 17.6461C2.05651 17.0742 1.99341 16.5796 1.91131 15.6169L1.90991 15.5978C1.76321 13.0636 1.76351 11.2638 1.91091 9.386C1.91151 9.3768 1.91251 9.3681 1.91351 9.3593C1.92581 9.2547 1.93751 9.1478 1.94931 9.0397C2.07071 7.9317 2.22191 6.5528 3.22291 5.6627C3.74331 5.204 4.35031 4.9097 5.02651 4.7884C6.11481 4.5902 9.82291 4.5 12.8077 4.5C15.7918 4.5 19.5003 4.5903 20.5911 4.7887C21.441 4.9418 22.2385 5.3999 22.7246 6.0141C22.7371 6.0298 22.7488 6.046 22.7599 6.0627C23.5873 7.3112 23.6777 8.7716 23.7503 9.9451C23.7577 10.0647 23.765 10.1818 23.7729 10.2958C23.8087 10.8923 23.8091 14.1012 23.7733 14.6969C23.6485 16.5276 23.5436 17.3216 23.2029 18.1293C22.9923 18.6389 22.7872 18.9497 22.446 19.2766C21.9211 19.7697 21.2632 20.0934 20.5441 20.2118C20.5215 20.2155 20.4988 20.2182 20.4759 20.2198C17.9564 20.4015 16.0454 20.5 13.1666 20.5ZM12.8077 5.9177C8.82911 5.9177 6.01661 6.0507 5.29481 6.1821C4.88361 6.2559 4.52861 6.4284 4.20981 6.7094C3.61861 7.2351 3.50971 8.2286 3.40441 9.1895L3.40181 9.2135C3.39101 9.3117 3.38031 9.4089 3.36911 9.5046C3.22791 11.3127 3.22831 13.051 3.37021 15.5083C3.45231 16.4683 3.50721 16.824 3.63741 17.2407C3.77691 17.7 3.95351 18.0419 4.14791 18.2285C4.42001 18.4954 4.79921 18.6825 5.24411 18.7688C6.04061 18.9262 7.44581 18.9925 11.5086 19.0644C12.2865 19.0764 12.9701 19.0822 13.5985 19.0822C16.0685 19.0822 17.8017 18.9901 20.3252 18.8089L20.336 18.8075C20.7475 18.7327 21.1232 18.5446 21.4223 18.2635C21.5929 18.0999 21.6945 17.9652 21.8464 17.5975C22.0953 17.0073 22.1913 16.3927 22.3128 14.6089C22.3449 14.0758 22.3446 10.9178 22.3125 10.3843C22.3048 10.2732 22.2974 10.1528 22.2897 10.0298C22.2248 8.9812 22.1513 7.7926 21.5491 6.8599L21.5457 6.8547L21.5417 6.85C21.2702 6.5247 20.803 6.2689 20.3224 6.1824C19.6169 6.0541 16.7434 5.9177 12.8077 5.9177Z" fill="#FEFFFE"/>
<path d="M16.6308 13.0248C17.0028 12.8388 17.0026 12.3082 16.6312 12.121C14.4924 11.0432 12.669 10.0185 10.5658 8.97411C10.2164 8.80061 9.8 9.04671 9.8 9.42741V15.6476C9.8 16.0322 10.2224 16.2785 10.5722 16.0971C12.5705 15.0606 15.2497 13.7155 16.6308 13.0248Z" fill="#FEFFFE"/>
</svg>
